<?xml version="1.0" ?><svg viewBox="0 0 64 64" xmlns="http://www.w3.org/2000/svg"><g id="a"/><g id="b"/><g id="c"/><g id="d"/><g id="e"/><g id="f"/><g id="g"/><g id="h"/><g id="i"/><g id="j"/><g id="k"/><g id="l"/><g id="m"/><g id="n"/><g id="o"/><g id="p"/><g id="q"/><g id="r"/><g id="s"/><g id="t"><path d="M22.82,16.69c-.22-.73-.81-1.31-1.6-1.44l-2.77-.47-1.3-2.49c-.36-.68-1.05-1.1-1.82-1.1s-1.46,.42-1.82,1.1l-1.3,2.49-2.77,.47c-.99,.17-1.71,1.02-1.71,2.02,0,.54,.21,1.05,.58,1.43l1.96,2.01-.41,2.78c-.01,.1-.02,.2-.02,.3,0,1.13,.92,2.05,2.05,2.05,.29,0,.59-.08,.85-.2v30.45c0,2.16,1.75,3.91,3.91,3.91h30.67c2.16,0,3.91-1.75,3.91-3.91V25.64c.27,.12,.56,.2,.85,.2,1.13,0,2.05-.92,2.05-2.05,0-.1,0-.2-.02-.3l-.41-2.78,1.96-2.01c.38-.39,.58-.9,.58-1.43,0-1-.72-1.85-1.71-2.02l-2.77-.47-1.3-2.49h0c-.36-.68-1.05-1.1-1.82-1.1s-1.46,.42-1.82,1.1l-1.3,2.49-2.77,.47c-.79,.13-1.39,.71-1.6,1.44h-2.76l-.1-.69,2.54-2.6c.46-.47,.71-1.09,.71-1.75,0-1.22-.88-2.26-2.08-2.47l-3.59-.61-1.69-3.22h0c-.43-.83-1.28-1.34-2.22-1.34s-1.78,.51-2.22,1.34l-1.69,3.22-3.59,.61c-1.21,.21-2.08,1.24-2.08,2.47,0,.66,.25,1.28,.71,1.75l2.54,2.6-.1,.69h-2.76Zm-10.97,7.09l.48-3.27c.05-.31-.06-.62-.27-.84l-2.28-2.45,3.26-.55c.31-.05,.57-.25,.72-.52l1.58-2.95s.04,.01,.05,.03h0l1.53,2.93c.15,.28,.41,.47,.72,.52l3.28,.64-2.31,2.36c-.22,.22-.32,.54-.27,.84l.4,3.32-2.96-1.46c-.14-.07-.29-.1-.44-.1s-.3,.03-.44,.1l-3.04,1.41ZM47.34,58H16.66c-1.05,0-1.91-.86-1.91-1.91V31.13H49.25v24.96c0,1.05-.86,1.91-1.91,1.91Zm-.96-41.34c.31-.05,.57-.25,.72-.52l1.58-2.95s.04,.01,.05,.03l1.53,2.92c.15,.28,.41,.47,.72,.52l3.28,.64-2.31,2.36c-.22,.22-.32,.54-.27,.84l.4,3.32-2.96-1.46c-.14-.07-.29-.1-.44-.1s-.3,.03-.44,.1l-3.03,1.41,.48-3.27c.05-.31-.06-.62-.27-.84l-2.28-2.45,3.26-.55Zm-4.72,2.03h0l1.96,2.02-.41,2.78c-.01,.1-.02,.2-.02,.3,0,1.13,.92,2.05,2.05,2.05,.31,0,.63-.07,.91-.21l2.52-1.25,.57,.28v4.47H14.75v-4.47l.57-.28,2.51,1.24c.28,.14,.6,.21,.91,.21,1.13,0,2.05-.92,2.05-2.05,0-.1,0-.2-.02-.3l-.41-2.78,1.96-2.01h2.95l-.13,.9c-.02,.12-.03,.24-.03,.36,0,1.38,1.12,2.5,2.5,2.5,.39,0,.77-.09,1.11-.26l3.26-1.61,3.26,1.61c.34,.17,.73,.26,1.11,.26,1.38,0,2.5-1.12,2.5-2.5,0-.12,0-.24-.03-.36l-.13-.91h2.94Zm-17.08-6.69c-.09-.1-.14-.22-.14-.35,0-.24,.18-.45,.42-.5l4.08-.69c.31-.05,.57-.25,.72-.52l1.92-3.66c.17-.33,.72-.33,.89,0l1.92,3.66c.15,.28,.41,.47,.72,.52l4.08,.7c.24,.04,.42,.25,.42,.49,0,.13-.05,.26-.14,.35l-2.89,2.96c-.22,.22-.32,.54-.27,.84l.6,4.16c0,.35-.41,.61-.72,.45l-3.71-1.83c-.14-.07-.29-.1-.44-.1s-.3,.03-.44,.1l-3.71,1.84c-.3,.15-.72-.08-.72-.52l.6-4.09c.05-.31-.06-.62-.27-.84l-2.89-2.96Z"/><path d="M25.28,24.29c-.55,0-1,.45-1,1s.45,1,1,1h13.44c.55,0,1-.45,1-1s-.45-1-1-1h-13.44Z"/><path d="M21.13,33.46c-2.24,0-4.06,1.82-4.06,4.06s1.82,4.06,4.06,4.06,4.06-1.82,4.06-4.06-1.82-4.06-4.06-4.06Zm0,6.12c-1.12,0-2.06-.94-2.06-2.06s.92-2.06,2.06-2.06,2.06,.92,2.06,2.06-.94,2.06-2.06,2.06Z"/><path d="M32,33.46c-2.24,0-4.06,1.82-4.06,4.06s1.82,4.06,4.06,4.06,4.06-1.82,4.06-4.06-1.82-4.06-4.06-4.06Zm0,6.12c-1.12,0-2.06-.94-2.06-2.06s.92-2.06,2.06-2.06,2.06,.92,2.06,2.06-.94,2.06-2.06,2.06Z"/><path d="M42.87,33.46c-2.24,0-4.06,1.82-4.06,4.06s1.82,4.06,4.06,4.06,4.06-1.82,4.06-4.06-1.82-4.06-4.06-4.06Zm0,6.12c-1.12,0-2.06-.94-2.06-2.06s.92-2.06,2.06-2.06,2.06,.92,2.06,2.06-.94,2.06-2.06,2.06Z"/><path d="M21.13,44.76c-2.24,0-4.06,1.82-4.06,4.06s1.82,4.06,4.06,4.06,4.06-1.82,4.06-4.06-1.82-4.06-4.06-4.06Zm0,6.12c-1.12,0-2.06-.94-2.06-2.06s.92-2.06,2.06-2.06,2.06,.92,2.06,2.06-.94,2.06-2.06,2.06Z"/><path d="M32,44.76c-2.24,0-4.06,1.82-4.06,4.06s1.82,4.06,4.06,4.06,4.06-1.82,4.06-4.06-1.82-4.06-4.06-4.06Zm0,6.12c-1.12,0-2.06-.94-2.06-2.06s.92-2.06,2.06-2.06,2.06,.92,2.06,2.06-.94,2.06-2.06,2.06Z"/><path d="M42.87,44.76c-2.24,0-4.06,1.82-4.06,4.06s1.82,4.06,4.06,4.06,4.06-1.82,4.06-4.06-1.82-4.06-4.06-4.06Zm0,6.12c-1.12,0-2.06-.94-2.06-2.06s.92-2.06,2.06-2.06,2.06,.92,2.06,2.06-.94,2.06-2.06,2.06Z"/></g><g id="u"/><g id="v"/><g id="w"/><g id="x"/><g id="y"/><g id="a`"/><g id="aa"/><g id="ab"/><g id="ac"/><g id="ad"/><g id="ae"/><g id="af"/><g id="ag"/><g id="ah"/><g id="ai"/><g id="aj"/><g id="ak"/><g id="al"/><g id="am"/><g id="an"/><g id="ao"/><g id="ap"/><g id="aq"/><g id="ar"/><g id="as"/><g id="at"/><g id="au"/><g id="av"/><g id="aw"/><g id="ax"/></svg>