<?xml version="1.0" ?><svg viewBox="0 0 64 64" xmlns="http://www.w3.org/2000/svg"><g id="a"/><g id="b"/><g id="c"/><g id="d"/><g id="e"/><g id="f"/><g id="g"/><g id="h"/><g id="i"/><g id="j"/><g id="k"/><g id="l"/><g id="m"/><g id="n"/><g id="o"/><g id="p"/><g id="q"/><g id="r"/><g id="s"/><g id="t"><path d="M50.25,30.13l-18.68-5.55-17.82,5.55v25.96c0,1.61,1.3,2.91,2.91,2.91h30.68c1.61,0,2.91-1.3,2.91-2.91V30.13Z" fill="#f0f3f5" fill-rule="evenodd"/><path d="M21.83,17.69l-8.08,6.35v6.09H50.25v-6.09l-8.04-6.35H21.83Z" fill="#e8a3c1" fill-rule="evenodd"/><path d="M24.19,37.52c0,1.69-1.37,3.06-3.06,3.06s-3.06-1.37-3.06-3.06,1.37-3.06,3.06-3.06,3.06,1.37,3.06,3.06Z" fill="#d9e3e9" fill-rule="evenodd"/><path d="M35.06,37.52c0,1.69-1.37,3.06-3.06,3.06s-3.06-1.37-3.06-3.06,1.37-3.06,3.06-3.06,3.06,1.37,3.06,3.06Z" fill="#d9e3e9" fill-rule="evenodd"/><path d="M45.93,37.52c0,1.69-1.37,3.06-3.06,3.06s-3.06-1.37-3.06-3.06,1.37-3.06,3.06-3.06,3.06,1.37,3.06,3.06Z" fill="#8996a8" fill-rule="evenodd"/><path d="M24.19,48.82c0,1.69-1.37,3.06-3.06,3.06s-3.06-1.37-3.06-3.06,1.37-3.06,3.06-3.06,3.06,1.37,3.06,3.06Z" fill="#8996a8" fill-rule="evenodd"/><circle cx="32" cy="48.82" fill="#8996a8" r="3.06" transform="translate(-17.12 80.35) rotate(-89.46)"/><path d="M45.93,48.82c0,1.69-1.37,3.06-3.06,3.06s-3.06-1.37-3.06-3.06,1.37-3.06,3.06-3.06,3.06,1.37,3.06,3.06Z" fill="#d9e3e9" fill-rule="evenodd"/><path d="M33.33,5.8l1.92,3.66,4.08,.69c1.19,.2,1.67,1.66,.82,2.53l-2.89,2.96,.6,4.09c.18,1.2-1.07,2.1-2.15,1.56l-3.71-1.83-3.71,1.83c-1.09,.54-2.33-.37-2.15-1.56l.6-4.09-2.89-2.96c-.85-.87-.37-2.33,.82-2.53l4.08-.69,1.92-3.66c.56-1.07,2.1-1.07,2.66,0Z" fill="#f5e680" fill-rule="evenodd"/><path d="M16.26,12.75l1.53,2.93,3.26,.55c.84,.14,1.17,1.17,.58,1.77l-2.31,2.36,.48,3.27c.12,.84-.75,1.47-1.51,1.1l-2.96-1.47-2.96,1.47c-.76,.38-1.63-.26-1.51-1.1l.48-3.27-2.31-2.36c-.59-.61-.26-1.63,.58-1.77l3.26-.55,1.53-2.93c.39-.75,1.47-.75,1.86,0Z" fill="#f5e680" fill-rule="evenodd"/><path d="M49.61,12.75l1.53,2.93,3.26,.55c.84,.14,1.17,1.17,.58,1.77l-2.31,2.36,.48,3.27c.12,.84-.75,1.47-1.51,1.1l-2.96-1.47-2.96,1.47c-.76,.38-1.63-.26-1.51-1.1l.48-3.27-2.31-2.36c-.59-.61-.26-1.63,.58-1.77l3.26-.55,1.53-2.93c.39-.75,1.47-.75,1.86,0Z" fill="#f5e680" fill-rule="evenodd"/><path d="M25.28,24.29c-.55,0-1,.45-1,1s.45,1,1,1h13.44c.55,0,1-.45,1-1s-.45-1-1-1h-13.44Z" fill="#f0f3f5" fill-rule="evenodd"/></g><g id="u"/><g id="v"/><g id="w"/><g id="x"/><g id="y"/><g id="a`"/><g id="aa"/><g id="ab"/><g id="ac"/><g id="ad"/><g id="ae"/><g id="af"/><g id="ag"/><g id="ah"/><g id="ai"/><g id="aj"/><g id="ak"/><g id="al"/><g id="am"/><g id="an"/><g id="ao"/><g id="ap"/><g id="aq"/><g id="ar"/><g id="as"/><g id="at"/><g id="au"/><g id="av"/><g id="aw"/><g id="ax"/></svg>