<svg xmlns="http://www.w3.org/2000/svg" viewBox="0 0 64 64"><defs><style>.cls-1{fill:#5dad00;}.cls-2{fill:#74d800;}.cls-3{fill:#fff;}</style></defs><title>Download</title><g id="Layer_2" data-name="Layer 2"><g id="Layer_1-2" data-name="Layer 1"><circle class="cls-1" cx="32" cy="32" r="32"/><circle class="cls-2" cx="32" cy="32" r="24"/><path class="cls-3" d="M30.48,48.23,22.83,39.3A2,2,0,0,1,24.35,36h15.3a2,2,0,0,1,1.52,3.3l-7.65,8.93A2,2,0,0,1,30.48,48.23Z"/><path class="cls-3" d="M30,16h4a2,2,0,0,1,2,2V40a0,0,0,0,1,0,0H28a0,0,0,0,1,0,0V18A2,2,0,0,1,30,16Z"/></g></g></svg>